<svg xmlns="http://www.w3.org/2000/svg" viewBox="0 0 199.995 196.761"><g fill="#955ba5"><path d="M175.77 196.761c0-11.56 9.361-20.931 20.931-20.931 11.55 0 20.912 9.371 20.912 20.931 0 11.561-9.362 20.912-20.912 20.912-11.569-.001-20.931-9.351-20.931-20.912z"/><path d="M196.702 171.351c13.997 0 25.389 11.402 25.389 25.41s-11.393 25.41-25.389 25.41c-14.006 0-25.41-11.402-25.41-25.41s11.403-25.41 25.41-25.41zm0 41.863c9.055 0 16.433-7.378 16.433-16.453 0-9.065-7.378-16.453-16.433-16.453-9.076 0-16.444 7.388-16.444 16.453 0 9.074 7.368 16.453 16.444 16.453z"/></g><path d="M196.702 314.911c65.24 0 118.14-52.89 118.14-118.15s-52.9-118.15-118.14-118.15c-65.25 0-118.161 52.89-118.161 118.15s52.911 118.15 118.161 118.15zm0-217.303c54.763 0 99.152 44.379 99.152 99.153 0 54.764-44.389 99.172-99.152 99.172-54.785 0-99.173-44.408-99.173-99.172 0-54.775 44.388-99.153 99.173-99.153z" fill="#955ba5"/><path d="M276.737 113.41v6.599c-42.306 0-76.742 34.435-76.742 76.751h-6.608c0-45.946 37.395-83.35 83.35-83.35z" fill="#955ba5"/><path d="M193.703 191.296h6.609c0 5.583 37.207 16.473 105.426 16.473v6.619c-38.756 0-112.035-4.824-112.035-23.092z" fill="#955ba5"/><path d="M8.951 160.422c94.94 0 191.044 12.488 191.044 36.339h-6.608c0-12.409-70.172-29.73-184.436-29.73v-6.609zM64.741 49.718c71.336 0 129.357 58.011 129.357 129.347h-6.619c0-67.677-55.051-122.728-122.738-122.728v-6.619z" fill="#955ba5"/></svg>